<svg xmlns="http://www.w3.org/2000/svg" width="24" height="24" viewBox="0 0 24 24"><g><g><g><g><path fill="#fff" d="M18.652 16.083c-.346.766-.511 1.108-.957 1.785-.621.945-1.496 2.123-2.581 2.133-.964.009-1.212-.627-2.52-.62-1.308.007-1.582.631-2.546.622-1.085-.01-1.914-1.073-2.536-2.019-1.736-2.644-1.918-5.746-.847-7.395.76-1.173 1.962-1.858 3.092-1.858 1.15 0 1.872.63 2.823.63.922 0 1.484-.631 2.814-.631 1.005 0 2.07.547 2.828 1.492-2.485 1.363-2.081 4.912.43 5.861z"/></g><g><path fill="#fff" d="M14.933 6.699c.546-.7.96-1.689.809-2.699-.891.061-1.933.628-2.542 1.367-.552.671-1.008 1.666-.831 2.633.973.03 1.979-.551 2.564-1.301z"/></g></g></g></g></svg>