<svg xmlns="http://www.w3.org/2000/svg" width="24" height="24" viewBox="0 0 24 24"><g><g><g><g><path fill="none" stroke="#fff" stroke-linecap="square" stroke-miterlimit="20" stroke-width="2" d="M38 42H24a4 4 0 0 1-4-4V24a4 4 0 0 1 4-4h14a4 4 0 0 1 4 4v14a4 4 0 0 1-4 4z"/></g><g><path fill="none" stroke="#fff" stroke-linecap="square" stroke-miterlimit="20" stroke-width="2" d="M31 37a6 6 0 1 0 0-12 6 6 0 0 0 0 12z"/></g><g><path fill="#fff" d="M24 25a1 1 0 1 0 0-2 1 1 0 0 0 0 2z"/></g></g></g></g></svg>